<svg xmlns="http://www.w3.org/2000/svg" width="121.205" height="51.769" viewBox="0 0 121.205 51.769">
  <g id="Smiley" transform="translate(-23.295 -141)">
    <path id="Path_18" data-name="Path 18" d="M99.905,103.23C89.5,100.573,80.771,96.62,76.437,91.188l3.054-2.437c3.483,4.365,11.1,8.067,21.38,10.692a153.787,153.787,0,0,0,35.039,4.187,150.088,150.088,0,0,0,35.606-3.506c10.632-2.539,18.874-6.4,23.15-11.422l2.975,2.532c-5.1,6-14.372,10.1-25.217,12.69a154.009,154.009,0,0,1-36.562,3.612A157.63,157.63,0,0,1,99.905,103.23Z" transform="translate(-53.142 85.217)" fill="#7d7d7d" fill-rule="evenodd"/>
    <path id="Path_17" data-name="Path 17" d="M176.235,94.477V75.512A17.582,17.582,0,0,0,158.653,57.93H122.512A17.582,17.582,0,0,0,104.93,75.512V94.477H102V75.512A20.512,20.512,0,0,1,122.512,55h36.141a20.512,20.512,0,0,1,20.512,20.512V94.477Z" transform="translate(-53.735 86)" fill="#7d7d7d" fill-rule="evenodd"/>
    <path id="Path_16" data-name="Path 16" d="M127.768,71.419c0,1.888-2.187,3.419-4.884,3.419S118,73.307,118,71.419,120.187,68,122.884,68,127.768,69.531,127.768,71.419Z" transform="translate(-54.107 85.698)" fill="#7d7d7d"/>
    <path id="Path_19" data-name="Path 19" d="M165.768,71.419c0,1.888-2.187,3.419-4.884,3.419S156,73.307,156,71.419,158.187,68,160.884,68,165.768,69.531,165.768,71.419Z" transform="translate(-54.989 85.698)" fill="#7d7d7d"/>
  </g>
</svg>
